<?xml version="1.0" standalone="no"?><svg xmlns="http://www.w3.org/2000/svg" viewBox="0 0 1440 320"><path fill="#000000" fill-opacity="1" d="M0,96L34.3,85.3C68.6,75,137,53,206,48C274.3,43,343,53,411,74.7C480,96,549,128,617,122.7C685.7,117,754,75,823,80C891.4,85,960,139,1029,149.3C1097.1,160,1166,128,1234,106.7C1302.9,85,1371,75,1406,69.3L1440,64L1440,320L1405.7,320C1371.4,320,1303,320,1234,320C1165.7,320,1097,320,1029,320C960,320,891,320,823,320C754.3,320,686,320,617,320C548.6,320,480,320,411,320C342.9,320,274,320,206,320C137.1,320,69,320,34,320L0,320Z"></path></svg>